HIERARCHY
ROOT Hips
{
	OFFSET 8.91173 92.52490 -21.95620
	CHANNELS 6 Xposition Yposition Zposition Zrotation Xrotation Yrotation
	JOINT Spine
	{
		OFFSET 0.00000 14.09320 -1.51142
		CHANNELS 3 Zrotation Xrotation Yrotation
		JOINT Spine1
		{
			OFFSET 0.00000 8.69660 0.00000
			CHANNELS 3 Zrotation Xrotation Yrotation
			JOINT Spine2
			{
				OFFSET 0.00000 8.69660 0.00000
				CHANNELS 3 Zrotation Xrotation Yrotation
				JOINT Spine3
				{
					OFFSET 0.00000 8.69660 0.00000
					CHANNELS 3 Zrotation Xrotation Yrotation
					JOINT Neck
					{
						OFFSET 0.00000 11.18130 1.11813
						CHANNELS 3 Zrotation Xrotation Yrotation
						JOINT Neck1
						{
							OFFSET 0.00000 5.70631 0.00000
							CHANNELS 3 Zrotation Xrotation Yrotation
							JOINT Head
							{
								OFFSET 0.00000 5.70631 0.00000
								CHANNELS 3 Zrotation Xrotation Yrotation
								End site
								{
									OFFSET 0.00000 9.71257 0.00000
								}
							}
						}
					}
					JOINT RightShoulder
					{
						OFFSET 0.00000 7.98668 5.19711
						CHANNELS 3 Zrotation Xrotation Yrotation
						JOINT RightArm
						{
							OFFSET 0.00000 18.31580 0.00000
							CHANNELS 3 Zrotation Xrotation Yrotation
							JOINT RightForeArm
							{
								OFFSET 0.00000 28.87420 0.00000
								CHANNELS 3 Zrotation Xrotation Yrotation
								JOINT RightHand
								{
									OFFSET 0.00000 23.87720 0.00000
									CHANNELS 3 Zrotation Xrotation Yrotation
									JOINT RightHandThumb1
									{
										OFFSET -2.41094 4.67063 3.47303
										CHANNELS 3 Zrotation Xrotation Yrotation
										JOINT RightHandThumb2
										{
											OFFSET 0.00000 3.95207 0.00000
											CHANNELS 3 Zrotation Xrotation Yrotation
											JOINT RightHandThumb3
											{
												OFFSET 0.00000 2.15568 0.00000
												CHANNELS 3 Zrotation Xrotation Yrotation
												End site
												{
													OFFSET 0.00000 1.91616 0.00000
												}
											}
										}
									}
									JOINT RightHandIndex1
									{
										OFFSET 0.00000 12.45500 2.51496
										CHANNELS 3 Zrotation Xrotation Yrotation
										JOINT RightHandIndex2
										{
											OFFSET 0.00000 4.79039 0.00000
											CHANNELS 3 Zrotation Xrotation Yrotation
											JOINT RightHandIndex3
											{
												OFFSET 0.00000 2.63472 0.00000
												CHANNELS 3 Zrotation Xrotation Yrotation
												End site
												{
													OFFSET 0.00000 1.91616 0.00000
												}
											}
										}
									}
									JOINT RightHandMiddle1
									{
										OFFSET 0.00000 12.45500 -0.07984
										CHANNELS 3 Zrotation Xrotation Yrotation
										JOINT RightHandMiddle2
										{
											OFFSET 0.00000 5.38919 0.00000
											CHANNELS 3 Zrotation Xrotation Yrotation
											JOINT RightHandMiddle3
											{
												OFFSET 0.00000 3.11376 0.00000
												CHANNELS 3 Zrotation Xrotation Yrotation
												End site
												{
													OFFSET 0.00000 2.03592 0.00000
												}
											}
										}
									}
									JOINT RightHandRing1
									{
										OFFSET 0.00000 11.07780 -2.67464
										CHANNELS 3 Zrotation Xrotation Yrotation
										JOINT RightHandRing2
										{
											OFFSET 0.00000 4.91015 0.00000
											CHANNELS 3 Zrotation Xrotation Yrotation
											JOINT RightHandRing3
											{
												OFFSET 0.00000 3.11376 0.00000
												CHANNELS 3 Zrotation Xrotation Yrotation
												End site
												{
													OFFSET 0.00000 2.03592 0.00000
												}
											}
										}
									}
									JOINT RightHandPinky1
									{
										OFFSET 0.00000 9.70055 -5.26943
										CHANNELS 3 Zrotation Xrotation Yrotation
										JOINT RightHandPinky2
										{
											OFFSET 0.00000 3.95207 0.00000
											CHANNELS 3 Zrotation Xrotation Yrotation
											JOINT RightHandPinky3
											{
												OFFSET 0.00000 2.15568 0.00000
												CHANNELS 3 Zrotation Xrotation Yrotation
												End site
												{
													OFFSET 0.00000 1.91616 0.00000
												}
											}
										}
									}
								}
							}
						}
					}
					JOINT LeftShoulder
					{
						OFFSET 0.00000 7.98668 5.19711
						CHANNELS 3 Zrotation Xrotation Yrotation
						JOINT LeftArm
						{
							OFFSET 0.00000 18.31580 0.00000
							CHANNELS 3 Zrotation Xrotation Yrotation
							JOINT LeftForeArm
							{
								OFFSET 0.00000 28.87420 0.00000
								CHANNELS 3 Zrotation Xrotation Yrotation
								JOINT LeftHand
								{
									OFFSET 0.00000 23.87720 0.00000
									CHANNELS 3 Zrotation Xrotation Yrotation
									JOINT LeftHandThumb1
									{
										OFFSET 2.41094 4.67063 3.47303
										CHANNELS 3 Zrotation Xrotation Yrotation
										JOINT LeftHandThumb2
										{
											OFFSET 0.00000 3.95207 0.00000
											CHANNELS 3 Zrotation Xrotation Yrotation
											JOINT LeftHandThumb3
											{
												OFFSET 0.00000 2.15568 0.00000
												CHANNELS 3 Zrotation Xrotation Yrotation
												End site
												{
													OFFSET 0.00000 1.60000 0.00000
												}
											}
										}
									}
									JOINT LeftHandIndex1
									{
										OFFSET 0.00000 12.45500 2.51496
										CHANNELS 3 Zrotation Xrotation Yrotation
										JOINT LeftHandIndex2
										{
											OFFSET 0.00000 4.79039 0.00000
											CHANNELS 3 Zrotation Xrotation Yrotation
											JOINT LeftHandIndex3
											{
												OFFSET 0.00000 2.63472 0.00000
												CHANNELS 3 Zrotation Xrotation Yrotation
												End site
												{
													OFFSET 0.00000 1.91616 0.00000
												}
											}
										}
									}
									JOINT LeftHandMiddle1
									{
										OFFSET 0.00000 12.45500 -0.07984
										CHANNELS 3 Zrotation Xrotation Yrotation
										JOINT LeftHandMiddle2
										{
											OFFSET 0.00000 5.38919 0.00000
											CHANNELS 3 Zrotation Xrotation Yrotation
											JOINT LeftHandMiddle3
											{
												OFFSET 0.00000 3.11376 0.00000
												CHANNELS 3 Zrotation Xrotation Yrotation
												End site
												{
													OFFSET 0.00000 2.03592 0.00000
												}
											}
										}
									}
									JOINT LeftHandRing1
									{
										OFFSET 0.00000 11.07780 -2.67464
										CHANNELS 3 Zrotation Xrotation Yrotation
										JOINT LeftHandRing2
										{
											OFFSET 0.00000 4.91015 0.00000
											CHANNELS 3 Zrotation Xrotation Yrotation
											JOINT LeftHandRing3
											{
												OFFSET 0.00000 3.11376 0.00000
												CHANNELS 3 Zrotation Xrotation Yrotation
												End site
												{
													OFFSET 0.00000 2.03592 0.00000
												}
											}
										}
									}
									JOINT LeftHandPinky1
									{
										OFFSET 0.00000 9.70055 -5.26943
										CHANNELS 3 Zrotation Xrotation Yrotation
										JOINT LeftHandPinky2
										{
											OFFSET 0.00000 3.95207 0.00000
											CHANNELS 3 Zrotation Xrotation Yrotation
											JOINT LeftHandPinky3
											{
												OFFSET 0.00000 2.15568 0.00000
												CHANNELS 3 Zrotation Xrotation Yrotation
												End site
												{
													OFFSET 0.00000 1.91616 0.00000
												}
											}
										}
									}
								}
							}
						}
					}
				}
			}
		}
	}
	JOINT RightUpLeg
	{
		OFFSET -10.06560 0.00000 0.00000
		CHANNELS 3 Zrotation Xrotation Yrotation
		JOINT RightLeg
		{
			OFFSET 0.00000 -42.98740 0.00000
			CHANNELS 3 Zrotation Xrotation Yrotation
			JOINT RightFoot
			{
				OFFSET 0.00000 -44.62500 0.00000
				CHANNELS 3 Zrotation Xrotation Yrotation
				JOINT RightForeFoot
				{
					OFFSET 0.00000 -3.74821 0.00000
					CHANNELS 3 Zrotation Xrotation Yrotation
					JOINT RightToeBase
					{
						OFFSET 0.00000 0.00000 14.67920
						CHANNELS 3 Zrotation Xrotation Yrotation
						End site
						{
							OFFSET 0.00000 0.00000 10.36040
						}
					}
				}
			}
		}
	}
	JOINT LeftUpLeg
	{
		OFFSET 10.06560 0.00000 0.00000
		CHANNELS 3 Zrotation Xrotation Yrotation
		JOINT LeftLeg
		{
			OFFSET 0.00000 -42.98740 0.00000
			CHANNELS 3 Zrotation Xrotation Yrotation
			JOINT LeftFoot
			{
				OFFSET 0.00000 -44.62500 0.00000
				CHANNELS 3 Zrotation Xrotation Yrotation
				JOINT LeftForeFoot
				{
					OFFSET 0.00000 -3.74821 0.00000
					CHANNELS 3 Zrotation Xrotation Yrotation
					JOINT LeftToeBase
					{
						OFFSET 0.00000 0.00000 14.67920
						CHANNELS 3 Zrotation Xrotation Yrotation
						End site
						{
							OFFSET 0.00000 0.00000 10.67280
						}
					}
				}
			}
		}
	}
}
MOTION
Frames: 3
Frame Time: 0.016667
5.188707093277715288e+00 9.235534076799304160e+01 1.101421602493216767e+01 -1.007266834454805426e+01 1.335348428789098563e+01 -1.661104633639789085e+02 6.628069066429214118e-01 9.495298121472172781e+00 -1.132804590211689666e+00 -1.257036333089723179e+00 8.733721038178989815e+00 4.063586291001329842e-01 7.452956274512270163e-01 2.515648343048346280e+00 -3.266378533341080193e+00 5.738158928043853635e+00 1.611462043233155894e+00 -1.699356975196732122e+00 -4.024604348175316204e+00 1.712954672037089665e+01 3.505599665308439583e+00 -1.560848770174908973e+00 -6.938719390713554702e+00 5.227788797761513173e+00 -1.962735953302039427e+00 -2.095157192648687072e+01 4.765514341510670437e-01 1.014718101427086907e+02 -1.863487474321383530e+01 3.484431902707536111e+00 5.205369532762377816e+01 1.680617320956024940e+01 -1.431564111852083165e+01 1.801993554985059518e+02 7.680259964651904170e+01 -1.621048679333800067e+02 1.119303117249191359e+01 -9.553881032789085737e+00 3.788481557578493152e-06 3.832235552326177519e+00 1.451029748581829537e+01 5.039074121374103044e-01 -1.272846709559484900e-17 2.329609074020445058e-17 -4.093592975634176997e-16 -3.187764710891624922e-15 -1.619375109964495136e-15 -2.399482136153395209e-15 2.017637810027538237e+01 -3.205386246805797761e-15 -3.862255984342977180e-15 5.270775066136957740e-18 -1.031784384567049049e-15 -4.696232520264907114e-15 -1.650038918636925747e-17 -9.877522115435800322e-16 -4.676077242715399409e-15 3.142119038414751842e+01 -3.993992364595340793e-15 -2.605464303003062470e-15 6.333471453079886209e-15 -2.944384168723712168e-15 2.565334447940998690e-15 -6.359890344503446796e-15 -3.566469895790974035e-15 5.181080015746807684e-17 3.818983338009768858e+01 -3.176191377814559266e-15 -7.239208943240862013e-16 -3.164009858573356431e-15 1.661949040914133094e-15 2.187612451725409998e-15 -3.187900109140393233e-15 5.439143126037335224e-15 1.386594413302047415e-15 5.856128433423742763e+01 -1.930284711514602900e-15 1.182664179216655214e-15 -3.190633667624251973e-15 -2.146598371793221364e-15 -1.922353187712578772e-16 -3.198279332966401485e-15 -2.108448261339846023e-15 -1.573571185549591733e-15 -9.082134086947270646e+01 -1.706666791896888213e+01 -4.760790224064084253e-01 -4.281882314723247873e+01 4.926127621514606858e+01 -1.243560330313233209e+01 1.767087197141683532e+02 8.467349019873670102e+01 1.706052014960958729e+02 2.546682714108121637e+00 1.018151549191918193e+00 1.257068235310064260e-03 -1.592215000658667279e+00 1.886263578468028257e+01 -8.202347330236055001e-01 -5.893852037826990479e-16 9.470184447461293728e-15 3.425892477614446055e-15 -1.998607387217059679e-15 6.380467079262156952e-15 -1.413518727177109542e-15 -1.519374876865087387e+01 -1.111967488868082361e-14 -5.060770706399294356e-15 1.622922614382694721e-15 3.209944282775355321e-15 1.117456714822227610e-14 -1.569805099958852283e-15 -3.163916142607815444e-15 3.165119618279953202e-15 -3.041061860556733620e+01 -1.065274780086868554e-14 -4.323953967246233760e-15 -6.365281952343967265e-15 9.535747208975009456e-15 7.576571850483507475e-17 -7.483683951439973515e-19 6.361846422753144753e-15 -6.592673990468692999e-17 -4.073088092046104691e+01 -1.039545420007401701e-14 1.001772772069711480e-15 3.155201999130085322e-15 -3.268599627964089997e-15 6.331096484810561079e-15 -3.189528309767396365e-15 -3.129385535645924999e-15 -6.371769124508300589e-15 -5.805218231609513424e+01 -7.967620405351849132e-15 4.430034437425342513e-15 3.171566904712196076e-15 6.388632859505382750e-15 6.445026848084178227e-15 -1.546285691230925061e-15 3.160925759041520042e-15 -3.229134600395380669e-15 -5.064378492269220544e+00 1.144527655914284381e+01 -5.891713465018199258e+00 1.208810396333690473e-01 1.587782273608500283e+01 5.521145587600088112e-01 -4.612820878025440052e+00 -1.733592930151926481e+01 -1.470812583987991573e+01 1.787257155754989087e-16 1.598367501232707216e-15 -1.453489750035675469e-16 -1.668524092213006088e-16 1.522050397839399238e+01 1.288978192968498006e-16 7.695472404473415295e+00 1.103244111410540107e+01 2.113768935605157040e+01 -2.593543658888641801e-02 2.257723947341267134e+01 1.078740012194900899e-02 -9.127199297944837753e+00 -3.724602050013219312e-01 -7.569511162530491610e+00 9.043283978152514352e-16 -1.605548838484456245e-15 1.657667837165798061e-15 -3.751166970296346570e-16 -7.883361907556373893e+00 1.539745108451840669e-15
1.715693877965354730e+01 9.183571070759688837e+01 1.260799188759462908e+01 -7.470399392793354743e+00 1.307607754998696237e+01 -1.774624259937644979e+02 -5.373231486856714589e+00 9.750848945147915003e+00 -5.492761894190913152e-02 -2.307707084094523076e+00 6.475531270979552723e+00 7.696996033406227067e-01 -1.052198265469409311e+00 1.660172825839004496e+00 -3.700155781154807144e+00 2.166949065136288155e+00 7.781155633203838962e-01 -1.618097197803839649e+00 -8.431594247925735530e+00 9.428775863701627458e+00 5.068588798270079465e+00 -2.747495479863365286e+00 -4.088883520874511568e+00 7.543694494929915173e+00 -3.941555932291986863e+00 -1.829959833364227961e+01 8.221164818377248995e-01 9.996190663505799989e+01 -1.649303108296644638e+01 2.788028644485565533e+00 6.856291018023716788e+01 5.783981685407070472e+00 -3.518061451670602935e+01 -2.475565205099838906e-01 4.734039433081188974e+01 -2.340914111879322590e+01 1.389218035104765647e+01 -6.644966554614390120e+00 -4.480887169631126007e-04 6.725297961610002595e+00 4.183303867407849097e+00 -7.188701296122701478e-03 -5.954530939205678278e-18 -2.243272247010801558e-17 -2.131899671670835650e-17 1.541399541473031137e-15 -6.377517340639203763e-15 8.850080124932119710e-18 -7.371836785106506973e+00 1.379442676574836058e-15 3.314722792679257440e-15 -1.567718243252924429e-15 -3.128658070941973870e-15 3.410118322910269339e-17 1.608975248237280479e-15 -3.168369920510625980e-15 -2.281526377874215577e-17 2.361137839478780975e+00 2.576401697241431419e-15 4.222013958513920382e-15 -8.201344510971197072e-16 1.407078536856499187e-17 3.229039317398681694e-15 -7.329851995616191296e-16 1.560380042530648545e-15 3.136501584812543867e-15 1.931165511115259648e+01 2.625094402878429021e-15 4.744846058500890248e-15 -2.402790495578935208e-15 4.759210931964702369e-15 6.637920762787898785e-17 -1.595953063934505760e-15 -1.223753770322832700e-17 -1.393797896511818273e-17 5.602087797053113860e+01 2.998658979058690822e-15 5.020208837662823448e-15 2.025957321252753695e-15 -6.995659370513132107e-17 3.725303326787884218e-17 -1.604724554159878460e-15 -4.860074918478617854e-15 8.498078450129019348e-17 -9.151387379595897187e+01 -1.490155689525625426e+01 -4.626404061044648852e-01 -6.320775254730217085e+01 5.078241706707977698e+01 4.844800282124955615e+00 1.800934572113901027e+02 6.250862149904099141e+01 1.370574728835612177e+02 -2.019790168978464528e+00 1.007215339322686809e+01 6.199765593850135989e-05 -2.853063465634637197e+00 1.148697562180803189e+01 -8.161835676324002975e-03 -7.715288412603320539e-16 1.506085452229152709e-15 3.191854293756083107e-15 2.390812275243740148e-15 1.639174945793026354e-15 3.835017630266993994e-18 1.833980461629451497e+01 3.164580111025971806e-15 2.431737817318017231e-15 3.178184907193885492e-15 1.002782073326745672e-16 1.648504758897507125e-15 4.012162427658750424e-15 -3.201677728933332267e-15 -2.454793978680481284e-17 -7.708222237637585295e-01 3.741374617456068975e-15 2.248772454009083425e-15 -8.260348281129330437e-16 -1.001122579512133277e-17 3.167282322054702259e-15 8.536298315003327411e-16 6.360805692913171124e-15 -7.484594590725612173e-17 -2.231480471267100540e+01 4.073089943552721168e-15 -3.105345130078942052e-16 -5.609032478820030436e-15 -1.592372168914789377e-15 3.440607065493230989e-17 -4.734170816272797905e-15 1.074191280443618123e-17 3.205247925351718513e-15 -5.395810200727702721e+01 5.253570148413516177e-15 -1.935850102380487644e-15 -3.107136252510934916e-15 3.245922674987343918e-15 -3.187051210843921195e-15 -2.429409285073179765e-15 3.138808222240967013e-15 -3.211839851765559621e-15 4.372003869373328300e+00 1.178534492168547843e+01 -6.085517991656287151e+00 -5.891926521353383350e-01 1.003088995032002728e+01 -1.203363057645705947e+00 -6.610142216683768446e+00 -1.595566752348906370e+01 -1.075995150836769199e+01 -2.945232784239787789e-16 2.384240535531538193e-15 -2.962612766608270231e-17 -3.908133945972745904e-16 1.536923089596334080e+01 1.765911336363741407e-15 5.687711252255457595e+00 2.457193398078518776e+00 2.120891679910934968e+01 1.916109994256021132e-01 3.335486299293854984e+01 -2.647059190852996124e-01 -6.102449927595921864e+00 -6.500559280668728235e+00 5.254591132223742633e+00 1.776730809619034350e-16 -7.143015302718836586e-17 -1.311062661872118668e-14 4.126271692905026220e-16 -7.250412008806952358e+00 -1.224217997123143916e-14
-1.416325523048363344e+00 9.216428164426135083e+01 3.588757599130871334e+00 -1.085960310764417613e+01 4.533513120233103599e+00 -1.813346196100175121e+02 -1.107747452086491080e+01 9.088769727986456104e+00 1.186805944066625429e+00 -2.462677032574810188e+00 5.856038310544926517e+00 9.699476480956676916e-01 -2.287809094099982232e+00 2.071970981841939174e+00 1.773829685909461329e+00 5.883573637682295576e-01 2.373061998636332603e+00 -6.012079293689587267e-01 -3.177506290377429821e+00 1.076213043793667090e+01 1.996556539524392493e+00 -1.369030484545205484e+00 -3.442106176235320891e+00 -3.037827277403199133e+00 -1.314468622638251816e+00 -1.750270252112933989e+01 -1.167130311170420792e-01 9.268073595782061602e+01 -2.371651177723216364e+01 1.310983622156626893e+00 4.389354556866435786e+01 -6.188766316148175406e+00 -3.722580827331962894e+01 -1.784187922161793836e+02 6.451130107445288786e+01 -1.651727953120710310e+02 3.018810045835227029e+01 -1.010972101260091094e+01 5.090377893062335442e-05 8.081495088457621989e+00 5.086633193412215093e+00 -1.367092986897527673e+00 -3.172611562886296714e-15 4.801613662181989728e-15 -6.392301314570476989e-15 2.337400011289281699e-17 -7.921183093905592853e-15 -3.192193577275309198e-15 6.227176000384622512e+01 -1.187352115880315788e-15 4.751153292844473175e-16 -5.068773394337599321e-18 4.636418790051538582e-15 -3.214522060672410090e-15 3.292650129426649924e-18 3.199511172322403334e-15 -3.197357765475685059e-15 7.686487531105444759e+01 -1.441121305739932200e-15 1.048499813400181221e-15 3.210140248211721836e-15 3.175796660441716613e-15 -3.078130973132767823e-15 7.266164429228809419e-18 3.229835904517326371e-15 -3.296422502981237074e-15 6.998108141838650909e+01 -1.297517247621226161e-15 2.039277693086597263e-15 -6.459839110282221920e-17 6.343879809126644288e-15 3.146738149290374521e-15 4.301596171996826057e-17 1.628306737117904001e-15 3.233347829768083540e-15 7.331840798126413006e+01 -6.510401896271640128e-16 3.441283854926291082e-15 -3.182569397933524499e-15 -2.735118483811447567e-17 6.349207464807746062e-15 1.693444797303146748e-17 3.214288949416387100e-15 3.139302863919908835e-15 -9.480749771315144869e+01 -2.199501073348250557e+01 -2.190217210689068050e+00 -3.647683601606713921e+01 -8.809798930938555372e+00 2.850395408450013690e+01 -1.857588433527818097e+02 8.492720944276278772e+01 1.586153373757688030e+02 -2.308945121363384700e+01 -6.554000995563583620e-01 4.893848501796939409e-04 -1.444101627409606436e+01 1.144214170782015216e+01 7.362296694391278429e+00 3.223133469529433566e-15 -7.312185518934116605e-18 6.379253970647822582e-15 6.328623980192364471e-15 -3.137990165642261663e-15 -3.172434514765921437e-15 -6.120734976974684827e+01 1.925893112013391519e-14 -2.335258082157723150e-14 1.546457105514685806e-15 4.916195510994565175e-17 9.466177600096528138e-15 4.782923655863956674e-15 -1.617530896660575589e-15 6.318723304154343919e-15 -8.919866492491563292e+01 2.802411233768139077e-14 -3.390243822604788008e-14 3.516178802509351446e-17 -6.344612783002686877e-15 3.188156794847717410e-15 6.369815184399056722e-15 -3.218967508898981290e-15 6.416089403718463712e-15 -9.052685743791914774e+01 2.788067877585689729e-14 -3.637221336220875335e-14 6.374346426405514051e-15 3.132977549033326619e-15 -6.326754182272226810e-15 1.283527951735501828e-18 3.161651402352259521e-15 -5.290854053913433675e-17 -9.619936018288960611e+01 2.628428576807806914e-14 -2.879438422628461417e-14 3.227477147939837541e-15 -6.246098569113642720e-15 -2.029403263086541164e-17 -6.381123074408723587e-15 3.224402296758542215e-15 3.216093022143535462e-15 -7.097993245645513483e+00 1.538373383374423398e+01 -4.922611041524044495e+00 -7.588200434634086999e-01 1.513360610882989654e+01 -1.086856042690096391e+00 2.510259409254257168e+00 -1.909377306461912482e+01 -4.268932982537085863e+00 8.505497599952261144e-17 -1.570601958178913184e-15 1.390065684511179690e-15 -3.629233472850588495e-16 7.497507598714906685e+00 5.097944041528711683e-15 -9.097123105896429252e+00 -5.117923784072303306e+00 1.728604949791977319e+01 -9.019746106946580078e-02 1.509711898591420898e+01 -2.285568936738262558e-01 6.209002280775068883e-01 6.448838989142906541e-01 -5.004260336748386884e+00 -8.102230230286877527e-17 -7.652179619273586803e-16 -2.861150467165705867e-15 -4.284295233798636815e-17 -4.220997625386423202e+00 -1.974342390291857644e-15
